<svg xmlns="http://www.w3.org/2000/svg" viewBox="0 0 360 250" width="360" height="250"><defs><linearGradient id="edge" x2="1" y2="1"><stop stop-color="#70e6f3"/><stop offset="1" stop-color="#f0c27a"/></linearGradient><radialGradient id="halo"><stop stop-color="#00c4db" stop-opacity=".17"/><stop offset="1" stop-color="#00c4db" stop-opacity="0"/></radialGradient><linearGradient id="body" x2=".8" y2="1"><stop stop-color="#1d3a4d"/><stop offset="1" stop-color="#111c29"/></linearGradient></defs><ellipse cx="180" cy="127" rx="166" ry="115" fill="url(#halo)"/><g fill="none" stroke="#6d8a9d" stroke-opacity=".16"><ellipse cx="180" cy="161" rx="123" ry="39"/><ellipse cx="180" cy="161" rx="149" ry="49"/></g><g fill="url(#body)" stroke="url(#edge)" stroke-width="1.4"><path d="m87 99 92-45 94 45v80l-94 44-92-44V99Z"/><path d="m87 99 92 44 94-44M179 143v80" fill="none"/><path d="m79 91 100-48 102 48-102 48L79 91Z"/><path d="M79 91v15l100 47 102-47V91"/></g><g fill="none" stroke="#e8bd7e" stroke-width="3"><path d="m129 68 101 48v81M129 117v80m0-80 102-49"/><path d="M180 89c-10-21-52-24-42-50 11-25 42 7 42 50Zm0 0c12-21 55-24 43-50-12-25-43 7-43 50Z"/></g><path d="m278 36 3 9 9 3-9 3-3 9-3-9-9-3 9-3 3-9Z" fill="#f0c27a"/></svg>