<svg xmlns="http://www.w3.org/2000/svg" viewBox="0 0 360 250" width="360" height="250"><defs><linearGradient id="edge" x2="1" y2="1"><stop stop-color="#70e6f3"/><stop offset="1" stop-color="#f0c27a"/></linearGradient><radialGradient id="halo"><stop stop-color="#00c4db" stop-opacity=".17"/><stop offset="1" stop-color="#00c4db" stop-opacity="0"/></radialGradient><linearGradient id="body" x2=".8" y2="1"><stop stop-color="#1d3a4d"/><stop offset="1" stop-color="#111c29"/></linearGradient></defs><ellipse cx="180" cy="127" rx="166" ry="115" fill="url(#halo)"/><g fill="none" stroke="#6d8a9d" stroke-opacity=".16"><ellipse cx="180" cy="161" rx="123" ry="39"/><ellipse cx="180" cy="161" rx="149" ry="49"/></g><path d="m72 178 109-52 109 52-109 53-109-53Z" fill="url(#body)" stroke="url(#edge)" stroke-opacity="0.8"/><path d="m72 178v5l109 53 109-53v-5" fill="#0d1c28" stroke="#477586" stroke-opacity=".3"/><path d="m72 159 109-52 109 52-109 53-109-53Z" fill="url(#body)" stroke="url(#edge)" stroke-opacity="0.7"/><path d="m72 159v5l109 53 109-53v-5" fill="#0d1c28" stroke="#477586" stroke-opacity=".3"/><path d="m72 140 109-52 109 52-109 53-109-53Z" fill="url(#body)" stroke="url(#edge)" stroke-opacity="0.6000000000000001"/><path d="m72 140v5l109 53 109-53v-5" fill="#0d1c28" stroke="#477586" stroke-opacity=".3"/><path d="m72 121 109-52 109 52-109 53-109-53Z" fill="url(#body)" stroke="url(#edge)" stroke-opacity="0.5"/><path d="m72 121v5l109 53 109-53v-5" fill="#0d1c28" stroke="#477586" stroke-opacity=".3"/><path d="m72 102 109-52 109 52-109 53-109-53Z" fill="url(#body)" stroke="url(#edge)" stroke-opacity="0.4"/><path d="m72 102v5l109 53 109-53v-5" fill="#0d1c28" stroke="#477586" stroke-opacity=".3"/><path d="m72 83 109-52 109 52-109 53-109-53Z" fill="url(#body)" stroke="url(#edge)" stroke-opacity="0.3"/><path d="m72 83v5l109 53 109-53v-5" fill="#0d1c28" stroke="#477586" stroke-opacity=".3"/><path d="m104 83 77-37 77 37-77 37-77-37Z" fill="none" stroke="#73ccdd" stroke-opacity=".25"/><circle cx="181" cy="68" r="4" fill="#f0c27a"/></svg>